SplineFontDB: 3.0
FontName: Experiment-Latin
FullName: Experiment-Latin
FamilyName: Experiment-Latin
Weight: Regular
Copyright: Copyright (c) 2015, Pathum Egodawatta
UComments: "2015-9-29: Created with FontForge (http://fontforge.org)"
Version: 0.001
ItalicAngle: 0
UnderlinePosition: 100
UnderlineWidth: 49
Ascent: 1000
Descent: 0
InvalidEm: 0
LayerCount: 5
Layer: 0 0 "Back" 1
Layer: 1 0 "Fore" 0
Layer: 2 0 "Back 2" 1
Layer: 3 0 "alt" 1
Layer: 4 0 "black" 1
PreferredKerning: 4
XUID: [1021 779 -1439063335 14876943]
FSType: 0
OS2Version: 0
OS2_WeightWidthSlopeOnly: 0
OS2_UseTypoMetrics: 1
CreationTime: 1443542790
ModificationTime: 1454427262
PfmFamily: 17
TTFWeight: 400
TTFWidth: 5
LineGap: 122
VLineGap: 0
OS2TypoAscent: 129
OS2TypoAOffset: 1
OS2TypoDescent: 0
OS2TypoDOffset: 1
OS2TypoLinegap: 122
OS2WinAscent: 129
OS2WinAOffset: 1
OS2WinDescent: -161
OS2WinDOffset: 1
HheadAscent: 29
HheadAOffset: 1
HheadDescent: 183
HheadDOffset: 1
OS2CapHeight: 0
OS2XHeight: 0
OS2Vendor: 'PfEd'
Lookup: 260 1 0 "'abvm' Above Base Mark in Thaana lookup 0" { "'abvm' Above Base Mark in Thaana lookup 0-1"  } ['abvm' ('thaa' <'dflt' > ) ]
MarkAttachClasses: 1
DEI: 91125
Encoding: ISO8859-1
UnicodeInterp: none
NameList: Adobe Glyph List
DisplaySize: -96
AntiAlias: 1
FitToEm: 1
WinInfo: 60 15 8
BeginPrivate: 0
EndPrivate
Grid
-1000 852 m 0
 2000 852 l 1024
-1000 62 m 0
 2000 62 l 1024
-1000 766 m 4
 2000 766 l 1028
-1000 830 m 0
 2000 830 l 1024
  Named: "2"
-1000 1143 m 0
 2000 1143 l 1024
665 1500 m 0
 665 -500 l 1024
149 1500 m 0
 149 -500 l 1024
-1000 499 m 0
 2000 499 l 1024
-1000 612 m 0
 2000 612 l 1024
EndSplineSet
AnchorClass2: "thn_ubufibi" "'abvm' Above Base Mark in Thaana lookup 0-1" 
BeginChars: 258 33

StartChar: a
Encoding: 97 97 1
GlifName: uni0061
Width: 626
VWidth: 153
Flags: HW
LayerCount: 5
Back
SplineSet
448 113 m 1
 448 113 387.673828125 -13 238 -13 c 0
 127.016601562 -13 55 32 55 125 c 0
 55 226 124.645507812 299.19140625 280 334 c 0
 371.66015625 354.537109375 446 346 446 346 c 1
 446 259 l 1
 446 259 382.010742188 298.114257812 305 287 c 0
 227.944335938 275.87890625 183.048828125 214.778320312 181 167 c 0
 178.264648438 103.212890625 211.5625 62.1572265625 279 58 c 0
 351.994140625 53.5 414 117.8125 420 159 c 1
 448 113 l 1
417 457 m 0
 396 546 311.684570312 555.455078125 287 552 c 0
 228.329101562 543.787109375 195.434570312 505.999023438 164 473 c 1
 220.0078125 557 l 1
 198.530273438 511.861328125 181.614257812 460.471679688 176 392 c 1
 88.1396484375 383 l 1
 81.9345703125 450.1796875 85 539 85 539 c 1
 134 566 240.01953125 610.842773438 339 611.013671875 c 0
 474.748046875 611.248046875 529.344726562 574.502929688 532 443 c 0
 533.576171875 364.958984375 517 166 534 95 c 0
 543 57 563 38 605 43 c 1
 616 4 l 1
 594.807617188 -4.4453125 539.655273438 -34.1240234375 482 -16 c 0
 437.524414062 -2.0185546875 428.541015625 36.7685546875 423 96 c 1
 413 110 l 1
 425 199 430.706054688 398.912109375 417 457 c 0
EndSplineSet
Fore
SplineSet
448 119 m 5
 448 119 387.673828125 -13 238 -13 c 4
 137.016601562 -13 55 32 55 125 c 4
 55 226 124.645507812 296.19140625 280 331 c 4
 371.66015625 351.537109375 446 356 446 356 c 5
 446 273 l 5
 446 273 382.010742188 299.114257812 305 288 c 4
 227.944335938 276.87890625 183.048828125 217.778320312 181 160 c 4
 178.737304688 96.1943359375 216.5625 65.1572265625 274 61 c 4
 346.942382812 55.720703125 414 117.8125 420 159 c 5
 448 119 l 5
414 457 m 4
 393 546 331.684570312 561.455078125 287 553 c 4
 228.790039062 541.985351562 205.434570312 506.999023438 174 474 c 5
 230.0078125 557 l 5
 208.530273438 511.861328125 191.614257812 469.471679688 186 401 c 5
 98.1396484375 392 l 5
 91.9345703125 459.1796875 95 539 95 539 c 5
 144 566 250.01953125 610.842773438 349 611.013671875 c 4
 484.748046875 611.248046875 529.344726562 574.502929688 532 443 c 4
 533.576171875 364.958984375 517 172 534 101 c 4
 543 63 563 44 605 49 c 5
 616 10 l 5
 594.807617188 1.5546875 539.655273438 -28.1240234375 482 -10 c 4
 437.524414062 3.9814453125 428.541015625 42.7685546875 423 102 c 5
 413 116 l 5
 425 205 427.706054688 398.912109375 414 457 c 4
EndSplineSet
Layer: 2
SplineSet
428 113 m 1
 428 113 387.673828125 -13 238 -13 c 0
 127.016601562 -13 55 32 55 125 c 0
 55 226 124.645507812 299.19140625 280 334 c 0
 371.66015625 354.537109375 426 346 426 346 c 1
 426 269 l 1
 426 269 372.010742188 298.114257812 305 287 c 0
 228.1953125 274.26171875 193.981445312 214.729492188 191 167 c 0
 188.264648438 123.212890625 211.5625 62.1572265625 279 58 c 0
 351.994140625 53.5 394 117.8125 400 159 c 1
 428 113 l 1
397 457 m 0
 376 546 321.684570312 555.455078125 297 552 c 0
 238.329101562 543.787109375 205.434570312 505.999023438 174 473 c 1
 230.0078125 557 l 1
 208.530273438 511.861328125 191.614257812 460.471679688 186 392 c 1
 88.1396484375 383 l 1
 81.9345703125 450.1796875 85 539 85 539 c 1
 134 566 250.01953125 610.842773438 349 611.013671875 c 0
 484.748046875 611.248046875 529.344726562 574.502929688 532 443 c 0
 533.576171875 364.958984375 517 175 534 104 c 0
 543 66 563 47 605 52 c 1
 616 4 l 1
 594.807617188 -4.4453125 519.655273438 -34.1240234375 462 -16 c 0
 417.524414062 -2.0185546875 408.541015625 36.7685546875 403 96 c 1
 393 110 l 1
 405 199 410.706054688 398.912109375 397 457 c 0
EndSplineSet
Layer: 3
Layer: 4
SplineSet
418 119 m 1
 418 119 377.673828125 -13 218 -13 c 0
 117.016601562 -13 45 32 45 125 c 0
 45 226 124.645507812 294.19140625 280 329 c 4
 371.66015625 349.537109375 401 352 401 352 c 1
 401 259 l 1
 401 259 372.010742188 301.114257812 305 291 c 4
 228.017578125 279.380859375 173.048828125 217.778320312 171 160 c 0
 168.737304688 96.1943359375 206.5625 65.1572265625 264 61 c 0
 336.942382812 55.720703125 384 117.8125 390 159 c 1
 418 119 l 1
384 457 m 0
 373 536 321.684570312 556.455078125 286 552 c 0
 227.213867188 544.661132812 205.434570312 506.999023438 174 474 c 1
 229.0078125 552 l 1
 207.530273438 506.861328125 191.614257812 469.471679688 186 401 c 1
 88.1396484375 392 l 1
 81.9345703125 459.1796875 85 539 85 539 c 1
 134 566 250.01953125 610.842773438 349 611.013671875 c 0
 484.748046875 611.248046875 529.344726562 574.502929688 532 443 c 0
 533.576171875 364.958984375 517 172 534 101 c 0
 543 63 563 44 605 49 c 1
 616 10 l 1
 594.807617188 1.5546875 539.655273438 -28.1240234375 482 -10 c 0
 437.524414062 3.9814453125 398.541015625 42.7685546875 393 102 c 1
 383 116 l 1
 395 205 392.230882565 397.887297942 384 457 c 0
EndSplineSet
EndChar

StartChar: n
Encoding: 110 110 2
GlifName: uni006E_
Width: 827
VWidth: 79
Flags: HW
LayerCount: 5
Back
SplineSet
682.62890625 476.931640625 m 0
 689.381835938 397.946289062 681.903320312 113 677 0 c 1
 550 0 l 1
 574.154296875 113.708984375 581.047851562 319.502929688 570.803710938 417.126953125 c 0
 562.877929688 492.657226562 509.4296875 529.543945312 427 513 c 0
 345.936523438 496.73046875 281 417 281 417 c 1
 256 454 l 1
 294.055664062 514.724609375 415.8984375 606.36328125 520 611 c 0
 605.555664062 614.810546875 673.96484375 578.276367188 682.62890625 476.931640625 c 0
57 62 m 1
 133 63 165 72 169 130 c 1
 284 143 l 1
 274.751953125 47.67578125 341.915039062 46.7607421875 368 48 c 1
 378 0 l 1
 65 0 l 1
 57 62 l 1
454 58 m 1
 530 54 565 92 569 140 c 1
 682 139 l 1
 679 49 753 49 772 50 c 1
 782 0 l 1
 464 0 l 1
 454 58 l 1
54 596 m 1
 158 592 288 608 288 608 c 1
 288 608 271 496 265 470 c 1
 265 437 288 478 288 478 c 1
 282 338 293 181 275 0 c 1
 160 0 l 1
 175 200 181 397 174 459 c 0
 169 504 143 526 61 528 c 1
 54 596 l 1
EndSplineSet
Fore
SplineSet
689.62890625 476.931640625 m 4
 692.745117188 455.3984375 693.9453125 418.271484375 693.9453125 373.396484375 c 4
 693.9453125 254.765625 685.557617188 81.986328125 682 0 c 5
 559 0 l 5
 576.78515625 79.017578125 586.07421875 202.733398438 586.07421875 303.467773438 c 4
 586.07421875 347.692382812 584.090820312 387.48828125 579.803710938 417.126953125 c 4
 570.727539062 479.869140625 529.549804688 513.185546875 470.3359375 513.185546875 c 4
 369.083984375 513.185546875 286 417 286 417 c 5
 261 454 l 5
 310.334960938 522.000976562 438.137695312 611.673828125 550.265625 611.673828125 c 4
 629.708007812 611.673828125 675.985351562 571.221679688 689.62890625 476.931640625 c 4
52 62 m 5
 63.8515625 60.5966796875 74.8759765625 59.8740234375 85.05859375 59.8740234375 c 4
 140.174804688 59.8740234375 170.624023438 81.0439453125 174 130 c 5
 289 143 l 5
 288.791992188 139.228515625 288.69140625 135.60546875 288.69140625 132.124023438 c 4
 288.69140625 55.9560546875 336.818359375 47.7841796875 364.6640625 47.7841796875 c 4
 367.716796875 47.7841796875 370.525390625 47.8828125 373 48 c 5
 383 0 l 5
 60 0 l 5
 52 62 l 5
463 62 m 5
 466.6875 61.8056640625 485.241210938 58.611328125 498.7734375 58.7109375 c 4
 538 59 573.194335938 69.3291015625 579 140 c 5
 688 139 l 5
 685.350585938 59.6962890625 743.505859375 49.818359375 770.178710938 49.818359375 c 4
 772.875976562 49.818359375 775.188476562 49.904296875 777 50 c 5
 787 0 l 5
 473 0 l 5
 463 62 l 5
49 595 m 5
 64.4892578125 593.95703125 80.77734375 593.513671875 97.2822265625 593.513671875 c 4
 191.596679688 593.513671875 293 608 293 608 c 5
 293 608 276 496 270 470 c 5
 270 460.530273438 271.893554688 457.154296875 274.594726562 457.154296875 c 4
 281.305664062 457.154296875 293 478 293 478 c 5
 291.252929688 437.234375 290.947265625 395.02734375 290.947265625 351.206054688 c 4
 290.947265625 327.614257812 291.036132812 303.5546875 291.036132812 279 c 4
 291.036132812 192.529296875 289.936523438 99.921875 280 0 c 5
 165 0 l 5
 175.778320312 143.716796875 181.91015625 285.884765625 181.91015625 377.525390625 c 4
 181.91015625 413.413085938 180.969726562 441.552734375 179 459 c 4
 174 504 138 532 56 534 c 5
 49 595 l 5
EndSplineSet
Layer: 2
SplineSet
682.62890625 476.931640625 m 0
 688.779296875 397.897460938 681.903320312 113 677 0 c 1
 537 0 l 1
 561.154296875 113.708984375 568.047851562 319.502929688 557.803710938 417.126953125 c 0
 549.877929688 492.657226562 489.4296875 524.543945312 427 513 c 0
 345.698242188 497.966796875 281 417 281 417 c 1
 256 454 l 1
 284.055664062 514.724609375 410.8984375 608.36328125 515 613 c 0
 600.555664062 616.810546875 673.96484375 588.276367188 682.62890625 476.931640625 c 0
46 62 m 1
 122 63 154 79 158 137 c 1
 284 150 l 1
 274.751953125 54.67578125 341.915039062 53.7607421875 368 55 c 1
 378 0 l 1
 54 0 l 1
 46 62 l 1
454 65 m 1
 530 61 552 99 556 147 c 1
 682 146 l 1
 679 56 753 56 772 57 c 1
 782 0 l 1
 464 0 l 1
 454 65 l 1
43 596 m 1
 147 592 288 608 288 608 c 1
 288 608 271 496 265 470 c 1
 265 437 288 478 288 478 c 1
 282 338 293 181 275 0 c 1
 149 0 l 1
 164 200 170 397 163 459 c 0
 158 504 132 526 50 528 c 1
 43 596 l 1
EndSplineSet
Layer: 3
Layer: 4
EndChar

StartChar: d
Encoding: 100 100 3
GlifName: uni0064
Width: 726
VWidth: 79
Flags: HW
LayerCount: 5
Back
SplineSet
474 136 m 5
 483.962890625 270.504882812 485.654296875 529.09375 480.217773438 718.8828125 c 4
 475.115234375 762.853515625 445.05078125 766 367 766 c 5
 360 829 l 5
 443 827 618 850 618 850 c 5
 593 650 589 208 593 145 c 4
 474 136 l 5
183.008789062 270 m 0
 181.942382812 167.05078125 223.369140625 75.9541015625 302.008789062 68 c 0
 383.40625 59.7666015625 459.291992188 126.734375 480.008789062 181 c 1
 511.008789062 140 l 1
 479.107421875 66 392.895507812 -12.91015625 280.008789062 -13 c 0
 134.999023438 -13.115234375 50.162109375 69.8994140625 49.0087890625 231 c 0
 47.9912109375 373.197265625 131.116210938 550.759765625 334.008789062 596 c 0
 412.350585938 613.46875 494.008789062 604 534.008789062 589 c 1
 494.008789062 501 l 1
 494.008789062 501 422.584960938 557.939453125 332.008789062 539 c 0
 244.211914062 520.641601562 184.567382812 420.450195312 183.008789062 270 c 0
550.008789062 -15 m 0
 496.715820312 -3.58984375 484.340820312 66.84765625 484.008789062 99 c 0
 483.560546875 108.749023438 475.137695312 129.8046875 474.74609375 142 c 0
 591.008789062 162 l 0
 596.463867188 80.44140625 624.682617188 44.87109375 703.008789062 57 c 1
 716.008789062 13 l 1
 663.836914062 -12.54296875 608.147460938 -27.447265625 550.008789062 -15 c 0
EndSplineSet
Fore
SplineSet
183.008789062 270 m 0
 181.942382812 167.05078125 223.369140625 75.9541015625 302.008789062 68 c 0
 383.40625 59.7666015625 459.291992188 126.734375 480.008789062 181 c 1
 511.008789062 140 l 1
 479.107421875 66 392.895507812 -12.91015625 280.008789062 -13 c 0
 134.999023438 -13.115234375 50.162109375 69.8994140625 49.0087890625 231 c 0
 47.9912109375 373.197265625 131.116210938 550.759765625 334.008789062 596 c 0
 412.350585938 613.46875 494.008789062 604 534.008789062 589 c 1
 494.008789062 501 l 1
 494.008789062 501 422.584960938 557.939453125 332.008789062 539 c 0
 244.211914062 520.641601562 184.567382812 420.450195312 183.008789062 270 c 0
550.008789062 -15 m 0
 496.715820312 -3.58984375 484.340820312 66.84765625 484.008789062 99 c 0
 483.560546875 108.749023438 475.137695312 129.8046875 474.74609375 142 c 0
 489.032226562 246.375976562 483.32421875 583.41796875 476.857421875 707.331054688 c 0
 474.404296875 754.350585938 432.419921875 767 360.008789062 766 c 1
 355.008789062 830 l 1
 438.008789062 828 609.008789062 850 609.008789062 850 c 1
 577.432617188 681.57421875 587.000976562 218.879882812 591.008789062 162 c 0
 596.754882812 80.4609375 624.682617188 44.87109375 703.008789062 57 c 1
 716.008789062 13 l 1
 663.836914062 -12.54296875 608.147460938 -27.447265625 550.008789062 -15 c 0
EndSplineSet
Layer: 2
SplineSet
360.008789062 853 m 1
 443.008789062 851 618.008789062 873 618.008789062 873 c 1
 618.008789062 873 609.008789062 834 602.008789062 777 c 1
 602.008789062 773 597.008789062 748 597.008789062 744 c 1
 565.008789062 741 l 0
 470.008789062 718 l 0
 475.008789062 770 452.008789062 782 364.008789062 782 c 1
 360.008789062 853 l 1
530.008789062 -15 m 0
 477.807617188 0.6650390625 472.340820312 66.84765625 472.008789062 99 c 1
 471.560546875 108.749023438 463.137695312 129.8046875 462.74609375 142 c 1
 474.130859375 225.181640625 474.19140625 415.891601562 467.193359375 551 c 1
 467.129882812 560.46484375 477.078125 569.809570312 477.041992188 579 c 1
 476.98828125 593.064453125 466.971679688 626.76953125 467.008789062 640 c 0
 467.251953125 727.08203125 474.900390625 777.067382812 482.008789062 838 c 1
 608.008789062 848 l 1
 583.008789062 648 589.78125 230.20703125 594.008789062 167 c 0
 599.463867188 85.44140625 604.682617188 49.87109375 683.008789062 62 c 1
 696.008789062 13 l 1
 643.836914062 -12.54296875 588.147460938 -32.447265625 530.008789062 -15 c 0
183.008789062 290 m 0
 181.962890625 187.05078125 223.369140625 75.9541015625 302.008789062 68 c 0
 383.40625 59.7666015625 447.291992188 126.734375 468.008789062 181 c 1
 499.008789062 140 l 1
 467.107421875 66 392.895507812 -12.916015625 270.008789062 -13 c 0
 114.999023438 -13.10546875 42.162109375 79.8994140625 41.0087890625 241 c 0
 39.9912109375 383.197265625 131.116210938 552.759765625 334.008789062 598 c 0
 412.350585938 615.46875 482.008789062 606 522.008789062 591 c 1
 482.008789062 498 l 1
 482.008789062 498 420.006835938 552.794921875 332.008789062 538 c 0
 253.9921875 524.8828125 184.567382812 443.450195312 183.008789062 290 c 0
EndSplineSet
Layer: 3
Layer: 4
EndChar

StartChar: h
Encoding: 104 104 4
GlifName: uni0068
Width: 801
VWidth: 79
Flags: HW
LayerCount: 5
Back
SplineSet
651.62890625 476.931640625 m 0
 660.693359375 398.177734375 650.903320312 113 646 0 c 1
 519 0 l 1
 543.154296875 113.708984375 550.047851562 319.502929688 539.803710938 417.126953125 c 0
 531.877929688 492.657226562 478.4296875 529.543945312 396 513 c 0
 314.936523438 496.73046875 250 417 250 417 c 1
 225 454 l 1
 263.055664062 514.724609375 386.8984375 606.36328125 491 611 c 0
 576.555664062 614.810546875 639.96484375 578.276367188 651.62890625 476.931640625 c 0
28 852 m 1
 111 850 289 873 289 873 c 1
 289 873 280 841 273 784 c 5
 273 780 268 755 268 751 c 5
 237 748 l 4
 149 723 l 4
 150 785 123 789 35 789 c 5
 28 852 l 1
312 1 m 1
 115 0 l 1
 115 0 134 72 142 136 c 1
 154 298 154 663 144 848 c 1
 289 873 l 1
 264 673 260 208 264 145 c 0
 267 101 246 49 328 49 c 1
 312 1 l 1
30 61 m 1
 106 57 136 89 143 137 c 1
 264 146 l 1
 262 51 338 50 356 51 c 1
 366 0 l 1
 40 0 l 1
 30 61 l 1
428 61 m 1
 504 57 534 89 538 137 c 1
 650 154 l 1
 647 64 731 60 750 61 c 1
 760 0 l 1
 438 0 l 1
 428 61 l 1
EndSplineSet
Fore
SplineSet
40 61 m 1
 116 57 149 89 156 137 c 1
 274 146 l 1
 272 51 348 50 366 51 c 1
 376 0 l 1
 50 0 l 1
 40 61 l 1
435 58 m 1
 438.6875 57.8056640625 440.278320312 57.7109375 443.7734375 57.7109375 c 0
 512.323242188 57.7109375 544.194335938 94.3291015625 548 140 c 1
 662 139 l 1
 659 49 732 49 751 50 c 1
 761 0 l 1
 443 0 l 1
 435 58 l 1
663.62890625 476.931640625 m 0
 674.981445312 398.475585938 660.903320312 113 656 0 c 1
 529 0 l 1
 545.78515625 79.017578125 556.07421875 202.733398438 556.07421875 303.467773438 c 0
 556.07421875 347.692382812 554.090820312 387.48828125 549.803710938 417.126953125 c 0
 538.877929688 492.657226562 485.4296875 525.543945312 406 509 c 0
 325.056640625 492.140625 260 417 260 417 c 1
 235 448 l 1
 283.055664062 518.724609375 405.013671875 604.252929688 499 611 c 0
 588.513671875 617.42578125 648.96484375 578.276367188 663.62890625 476.931640625 c 0
322 1 m 1
 128 0 l 1
 128 0 147 72 155 136 c 0
 164.962890625 270.504882812 166.654296875 529.09375 161.217773438 718.8828125 c 0
 156.115234375 762.853515625 126.05078125 766 48 766 c 1
 41 829 l 1
 124 827 298 850 298 850 c 1
 273 637 270 208 274 145 c 0
 277 101 256 49 338 49 c 1
 322 1 l 1
EndSplineSet
Layer: 2
SplineSet
651.62890625 476.931640625 m 0
 657.779296875 397.897460938 650.903320312 113 646 0 c 1
 506 0 l 1
 530.154296875 113.708984375 538.323242188 319.645507812 526.803710938 417.126953125 c 0
 517.877929688 492.657226562 459.4296875 524.543945312 396 513 c 4
 314.65625 498.1953125 250 421 250 421 c 5
 225 454 l 1
 253.055664062 514.724609375 381.885742188 608.666992188 486 613 c 0
 577.555664062 616.810546875 642.96484375 588.276367188 651.62890625 476.931640625 c 0
18 852 m 1
 101 850 289 873 289 873 c 1
 289 873 280 834 273 777 c 1
 273 773 268 748 268 744 c 1
 237 741 l 0
 139 716 l 0
 140 778 113 782 25 782 c 1
 18 852 l 1
312 1 m 1
 105 0 l 1
 105 0 124 79 132 143 c 1
 144 305 144 663 134 848 c 1
 289 873 l 1
 264 673 260 215 264 152 c 0
 267 108 246 56 328 56 c 1
 312 1 l 1
20 68 m 1
 96 64 126 96 133 144 c 1
 264 153 l 1
 262 58 338 57 356 58 c 1
 366 0 l 1
 30 0 l 1
 20 68 l 1
428 68 m 1
 504 64 521 96 525 144 c 1
 650 161 l 1
 647 71 731 67 750 68 c 1
 760 0 l 1
 438 0 l 1
 428 68 l 1
EndSplineSet
Layer: 3
Layer: 4
EndChar

StartChar: e
Encoding: 101 101 5
GlifName: uni0065
Width: 598
VWidth: 153
Flags: HW
LayerCount: 5
Back
SplineSet
125.786132812 346 m 5
 372.786132812 368 l 1
 435.786132812 368 l 1
 426.786132812 497 366.7734375 563.91015625 288.786132812 555 c 0
 244.935546875 549.990234375 157.072265625 510.348632812 175.786132812 319 c 0
 189.67578125 176.98046875 237.200195312 78.201171875 350.786132812 63 c 0
 454.982421875 49.0556640625 543.786132812 113 545.786132812 113 c 1
 574.786132812 77 l 0
 555.786132812 60 473.776367188 -14.271484375 346.786132812 -16 c 0
 199.78515625 -18.0009765625 56.1875 53.0205078125 45.7861328125 257 c 0
 33.10546875 505.689453125 190.861328125 605.030273438 307.786132812 609 c 0
 492.811523438 615.282226562 579.786132812 477 559.786132812 298 c 1
 149.786132812 298 l 1
 125.786132812 346 l 5
EndSplineSet
Fore
SplineSet
125.786132812 344 m 1
 382.786132812 367 l 1
 442.786132812 368 l 1
 432.786132812 507 357.711914062 564.84375 298.786132812 559 c 0
 205.905273438 549.7890625 164.5078125 461.860351562 167.786132812 329 c 0
 170.266601562 228.477539062 194.200195312 83.201171875 331.786132812 58 c 0
 435.19140625 39.0595703125 524.786132812 107 526.786132812 107 c 1
 550.786132812 73 l 0
 531.786132812 56 456.771484375 -13.9990234375 329.786132812 -16 c 0
 202.78515625 -18.0009765625 56.6220703125 36.04296875 45.7861328125 240 c 0
 33.10546875 478.689453125 176.26171875 598.580078125 302.786132812 609 c 0
 470.938476562 622.84765625 575.786132812 527 557.786132812 298 c 1
 155.786132812 296 l 1
 125.786132812 344 l 1
EndSplineSet
Layer: 2
SplineSet
125.786132812 346 m 5
 372.786132812 368 l 1
 435.786132812 368 l 1
 426.786132812 497 366.7734375 563.91015625 288.786132812 555 c 0
 244.935546875 549.990234375 157.072265625 510.348632812 175.786132812 319 c 0
 189.67578125 176.98046875 237.200195312 78.201171875 350.786132812 63 c 0
 454.982421875 49.0556640625 543.786132812 113 545.786132812 113 c 1
 574.786132812 77 l 0
 555.786132812 60 473.776367188 -14.271484375 346.786132812 -16 c 0
 199.78515625 -18.0009765625 56.1875 53.0205078125 45.7861328125 257 c 0
 33.10546875 505.689453125 190.861328125 605.030273438 307.786132812 609 c 0
 492.811523438 615.282226562 579.786132812 477 559.786132812 298 c 1
 149.786132812 298 l 1
 125.786132812 346 l 5
EndSplineSet
Layer: 3
Layer: 4
EndChar

StartChar: i
Encoding: 105 105 6
GlifName: uni0069
Width: 413
VWidth: 79
Flags: HW
LayerCount: 5
Back
SplineSet
120.1953125 788.1328125 m 0
 120.1953125 835.697265625 158.700195312 874.202148438 206.264648438 874.202148438 c 0
 253.830078125 874.202148438 292.334960938 835.697265625 292.334960938 788.1328125 c 0
 292.334960938 740.567382812 253.830078125 702.0625 206.264648438 702.0625 c 0
 158.700195312 702.0625 120.1953125 740.567382812 120.1953125 788.1328125 c 0
50 68 m 1
 116 64 148 86 152 144 c 1
 275 149 l 1
 273 54 335 60 363 61 c 1
 373 0 l 1
 57 0 l 1
 50 68 l 1
49 592 m 1
 132 590 289 603 289 603 c 1
 279.327148438 547.604492188 277.629882812 87.107421875 269 0 c 1
 143 0 l 1
 158 200 159 387 152 449 c 0
 147 494 127 524 55 524 c 1
 49 592 l 1
EndSplineSet
Fore
SplineSet
145.854492188 776.734375 m 4
 145.854492188 818.528320312 179.403320312 847.086914062 220.846679688 847.086914062 c 4
 271.00390625 847.086914062 295.841796875 807.982421875 295.841796875 766.190429688 c 4
 295.841796875 724.396484375 262.29296875 695.8359375 220.846679688 695.8359375 c 4
 179.403320312 695.8359375 145.854492188 734.940429688 145.854492188 776.734375 c 4
50 61 m 1
 116 57 164 79 168 137 c 1
 275 142 l 1
 273 47 335 53 363 54 c 1
 373 0 l 1
 57 0 l 1
 50 61 l 1
49 592 m 1
 132 590 289 603 289 603 c 1
 279.327148438 547.604492188 277.629882812 87.107421875 269 0 c 1
 159 0 l 1
 174 200 175 394 168 456 c 0
 163 501 127 531 55 531 c 1
 49 592 l 1
EndSplineSet
Layer: 2
SplineSet
120.1953125 788.1328125 m 0
 120.1953125 835.697265625 158.700195312 874.202148438 206.264648438 874.202148438 c 0
 253.830078125 874.202148438 292.334960938 835.697265625 292.334960938 788.1328125 c 0
 292.334960938 740.567382812 253.830078125 702.0625 206.264648438 702.0625 c 0
 158.700195312 702.0625 120.1953125 740.567382812 120.1953125 788.1328125 c 0
50 68 m 1
 116 64 148 86 152 144 c 1
 275 149 l 1
 273 54 335 60 363 61 c 1
 373 0 l 1
 57 0 l 1
 50 68 l 1
49 592 m 1
 132 590 289 603 289 603 c 1
 279.327148438 547.604492188 277.629882812 87.107421875 269 0 c 1
 143 0 l 1
 158 200 159 387 152 449 c 0
 147 494 127 524 55 524 c 1
 49 592 l 1
EndSplineSet
Layer: 3
Layer: 4
EndChar

StartChar: s
Encoding: 115 115 7
GlifName: uni0073
Width: 531
VWidth: 153
Flags: HW
LayerCount: 5
Back
SplineSet
243 47 m 0
 301.53125 46.4580078125 348.39453125 87.744140625 356 131.4140625 c 0
 379.359375 265.549804688 86.7275390625 249.123046875 64 412 c 0
 49.3701171875 516.848632812 145.05078125 608.756835938 302 606 c 0
 396.024414062 604.348632812 458 580 458 580 c 1
 462.323242188 542.447265625 460.184570312 471.194335938 455 437 c 1
 375 445 l 1
 373.559570312 482.333007812 358.795898438 542.666992188 338 591 c 1
 393 462 l 1
 379.317382812 478.264648438 357.96484375 550.783203125 274 551.381835938 c 0
 217.659179688 551.783203125 184.045898438 511.095703125 194 466 c 0
 219.3203125 351.291992188 459.510742188 368.948242188 476 184 c 0
 486.04296875 71.3583984375 379.010742188 -13.544921875 235 -14 c 0
 122.419921875 -14.35546875 39 18 39 18 c 1
 35.111328125 53.1884765625 36.8671875 115.701171875 46 176 c 1
 129 167 l 1
 131.750976562 119.7890625 140.740234375 75.5732421875 165 41 c 1
 124.46875 52.052734375 112.418945312 95.958984375 105 139 c 1
 137.305664062 104.682617188 156.556640625 47.80078125 243 47 c 0
EndSplineSet
Fore
SplineSet
253 43 m 0
 312.53125 42.4580078125 355.39453125 82.744140625 363 126.4140625 c 0
 386.359375 260.549804688 98.4755859375 249.376953125 74 412 c 0
 58.3701171875 515.848632812 145.05078125 608.756835938 302 606 c 0
 396.024414062 604.348632812 458 580 458 580 c 1
 462.323242188 542.447265625 460.184570312 471.194335938 455 437 c 1
 375 445 l 1
 373.559570312 482.333007812 358.795898438 542.666992188 338 591 c 1
 393 462 l 1
 379.317382812 478.264648438 357.96484375 554.783203125 274 555.381835938 c 0
 217.659179688 555.783203125 174.045898438 512.095703125 184 466 c 0
 208.794921875 351.177734375 459.510742188 348.948242188 476 184 c 0
 487.249023438 71.47265625 389.010742188 -17.544921875 245 -18 c 0
 132.419921875 -18.35546875 49 14 49 14 c 1
 45.111328125 49.1884765625 46.8671875 111.701171875 56 172 c 1
 139 163 l 1
 141.750976562 115.7890625 150.740234375 71.5732421875 175 37 c 1
 134.46875 48.052734375 122.418945312 91.958984375 115 135 c 1
 147.305664062 100.682617188 166.556640625 43.787109375 253 43 c 0
EndSplineSet
Layer: 2
SplineSet
243 47 m 0
 301.53125 46.4580078125 348.39453125 87.744140625 356 131.4140625 c 0
 379.359375 265.549804688 86.7275390625 249.123046875 64 412 c 0
 49.3701171875 516.848632812 145.05078125 608.756835938 302 606 c 0
 396.024414062 604.348632812 458 580 458 580 c 1
 462.323242188 542.447265625 460.184570312 471.194335938 455 437 c 1
 375 445 l 1
 373.559570312 482.333007812 358.795898438 542.666992188 338 591 c 1
 393 462 l 1
 379.317382812 478.264648438 357.96484375 550.783203125 274 551.381835938 c 0
 217.659179688 551.783203125 184.045898438 511.095703125 194 466 c 0
 219.3203125 351.291992188 459.510742188 368.948242188 476 184 c 0
 486.04296875 71.3583984375 379.010742188 -13.544921875 235 -14 c 0
 122.419921875 -14.35546875 39 18 39 18 c 1
 35.111328125 53.1884765625 36.8671875 115.701171875 46 176 c 1
 129 167 l 1
 131.750976562 119.7890625 140.740234375 75.5732421875 165 41 c 1
 124.46875 52.052734375 112.418945312 95.958984375 105 139 c 1
 137.305664062 104.682617188 156.556640625 47.80078125 243 47 c 0
EndSplineSet
Layer: 3
Layer: 4
EndChar

StartChar: o
Encoding: 111 111 8
GlifName: o
Width: 662
VWidth: 153
Flags: HW
LayerCount: 5
Back
SplineSet
376.670898438 611.631835938 m 4
 194.022460938 616.409179688 52.15234375 465.428710938 44.0185546875 255.5859375 c 0
 37.9921875 100.102539062 125.208007812 -9.572265625 313.635742188 -14.4541015625 c 0
 536.596679688 -20.23046875 625.932617188 146.333007812 631.072265625 322.662109375 c 0
 637.393554688 539.545898438 524.641601562 607.76171875 376.670898438 611.631835938 c 4
490.171875 297.67578125 m 0
 486.427734375 167.583007812 446.250976562 59.431640625 349.459960938 48.4140625 c 0
 235.208984375 35.4091796875 182.90625 186.602539062 187.434570312 318.36328125 c 0
 193.868164062 505.547851562 282.1015625 548.077148438 327.977539062 553.431640625 c 0
 413.30859375 563.390625 494.677734375 454.274414062 490.171875 297.67578125 c 0
EndSplineSet
Fore
SplineSet
361.670898438 611.631835938 m 4
 178.961914062 612.6640625 43.15234375 465.428710938 45.0185546875 245.5859375 c 4
 46.33984375 89.9912109375 120.208007812 -11.572265625 298.635742188 -14.4541015625 c 4
 521.642578125 -18.0556640625 607.684570312 147.340820312 613.072265625 323.662109375 c 4
 619.393554688 530.545898438 515.641601562 610.76171875 361.670898438 611.631835938 c 4
495.171875 297.67578125 m 4
 491.427734375 167.583007812 441.250976562 59.431640625 344.459960938 48.4140625 c 4
 230.208984375 35.4091796875 167.90625 156.602539062 172.434570312 318.36328125 c 4
 177.67578125 505.584960938 266.973632812 549.31640625 312.977539062 553.431640625 c 4
 424.30859375 563.390625 499.677734375 454.274414062 495.171875 297.67578125 c 4
EndSplineSet
Layer: 2
SplineSet
376.670898438 611.631835938 m 4
 194.022460938 616.409179688 52.15234375 465.428710938 44.0185546875 255.5859375 c 0
 37.9921875 100.102539062 125.208007812 -9.572265625 313.635742188 -14.4541015625 c 0
 536.596679688 -20.23046875 625.932617188 146.333007812 631.072265625 322.662109375 c 0
 637.393554688 539.545898438 524.641601562 607.76171875 376.670898438 611.631835938 c 4
490.171875 297.67578125 m 0
 486.427734375 167.583007812 446.250976562 59.431640625 349.459960938 48.4140625 c 0
 235.208984375 35.4091796875 182.90625 186.602539062 187.434570312 318.36328125 c 0
 193.868164062 505.547851562 282.1015625 548.077148438 327.977539062 553.431640625 c 0
 413.30859375 563.390625 494.677734375 454.274414062 490.171875 297.67578125 c 0
EndSplineSet
Layer: 3
Layer: 4
EndChar

StartChar: b
Encoding: 98 98 9
GlifName: b
Width: 692
VWidth: 79
Flags: HW
LayerCount: 5
Back
SplineSet
0 819 m 5
 83 817 254 839 254 839 c 5
 254 839 245 800 238 743 c 5
 238 739 233 714 233 710 c 5
 216 707 l 4
 122 677 l 4
 127 729 88 758 0 758 c 5
 0 819 l 5
279 1 m 5
 116 24 l 5
 118.794921875 180.715820312 125.564453125 631.268554688 118 815 c 5
 253 834 l 5
 217.078125 546.623046875 219.814453125 183.802734375 227 45 c 5
 279 1 l 5
519 349 m 4
 519.874023438 485.951171875 448.341808951 535.290461064 386 534 c 4
 328.950355759 532.819085525 258.716796875 488.265625 223 404 c 5
 189 445 l 5
 236.901367188 558 342.11328125 612.911132812 427 613 c 4
 572.009765625 613.15234375 649 515 643 344 c 4
 636.958007812 171.802734375 553.734375 -10.203125 324 -12 c 4
 225.939453125 -12.7666015625 158 7 115 24 c 5
 185 152 l 5
 185 152 249.77734375 30.8427734375 367 52 c 4
 448.831054688 66.76953125 517.829196849 165.546265528 519 349 c 4
EndSplineSet
Fore
SplineSet
112.74609375 22 m 1
 126.15417963 127.267049717 132.487815858 572.076140278 114.857421875 707.331054688 c 0
 108.771597064 754.019615062 70.419921875 767 -1.9912109375 766 c 1
 -6.9912109375 830 l 1
 76.0087890625 828 247.008789062 850 247.008789062 850 c 1
 215.431640625 681.57421875 225 218.879882812 229.008789062 162 c 0
 234.754882812 80.4609375 222.682617188 34.87109375 301.008789062 47 c 1
 314.008789062 3 l 1
 112.74609375 22 l 1
519 349 m 0
 519.874023438 485.951171875 448.341808951 535.290461064 386 534 c 0
 328.950355759 532.819085525 258.716796875 488.265625 223 404 c 1
 189 445 l 1
 236.901367188 558 342.11328125 612.911132812 427 613 c 0
 572.009765625 613.15234375 649 515 643 344 c 0
 636.958007812 171.802734375 553.734375 -10.203125 324 -12 c 0
 225.939453125 -12.7666015625 156 5 113 22 c 1
 185 152 l 1
 185 152 249.77734375 30.8427734375 367 52 c 0
 448.831054688 66.76953125 517.829196849 165.546265528 519 349 c 0
EndSplineSet
Layer: 2
SplineSet
2 851 m 1
 85 849 260 871 260 871 c 1
 260 871 251 832 244 775 c 1
 244 771 239 746 239 742 c 1
 208 739 l 0
 114 702 l 0
 119 754 90 781 2 781 c 1
 2 851 l 1
285 1 m 1
 108 24 l 1
 100.794921875 180.715820312 103.564453125 663.268554688 125 847 c 1
 259 866 l 1
 223.078125 578.623046875 225.814453125 193.802734375 233 55 c 1
 285 1 l 1
504 338 m 0
 504.874023438 450.951171875 458.306640625 542.989257812 369 540 c 0
 321.951171875 538.42578125 259.716796875 495.265625 229 411 c 1
 190 474 l 1
 241.901367188 558 334.11328125 612.916992188 419 613 c 0
 575.009765625 613.15234375 656 508 650 337 c 0
 643.958007812 164.802734375 553.734375 -10.203125 324 -12 c 0
 225.939453125 -12.7666015625 150 7 107 24 c 1
 177 162 l 1
 177 162 229.8828125 52.3623046875 349 52 c 0
 424.831054688 51.76953125 502.580078125 154.548828125 504 338 c 0
EndSplineSet
Layer: 3
Layer: 4
EndChar

StartChar: r
Encoding: 114 114 10
GlifName: r
Width: 594
VWidth: 79
Flags: HW
LayerCount: 5
Back
SplineSet
258 379 m 17
 275.872070312 453.254882812 356.202148438 589.650390625 494 594 c 0
 543.57421875 595.564453125 564 583 564 583 c 17
 568.8671875 518.4921875 560.116210938 425.768554688 551 379 c 9
 471 383 l 17
 463.6328125 436.482421875 422.154296875 509 422.154296875 509 c 1
 468 476 l 1
 384.666015625 477.666992188 316.666015625 420.666992188 254 320 c 9
 258 379 l 17
50 61 m 1
 116 57 161 79 165 137 c 1
 275 142 l 1
 273 47 335 53 363 54 c 1
 373 0 l 1
 57 0 l 1
 50 61 l 1
49 582 m 1
 132 580 289 593 289 593 c 1
 279.327148438 537.604492188 277.629882812 87.107421875 269 0 c 1
 156 0 l 1
 171 200 172 384 165 446 c 0
 160 491 127 521 55 521 c 1
 49 582 l 1
EndSplineSet
Fore
SplineSet
478 408 m 1049
577.62890625 596.931640625 m 1,0,1
 584.06640625 550.486328125 572 443 564.676757812 402 c 1,9,10
 478 408 l 1,0,0
 472.810546875 474.30078125 450.081054688 516.78515625 415.336914062 554 c 1,0,0
 512.3359375 487.185546875 l 1,11,12
 382.362304688 532.341796875 234.743164062 428.206054688 246 417 c 1,15,-1
 241 464 l 1,16,17
 302.587890625 535.41015625 417.267578125 606.356445312 502 608.061523438 c 0,0,0
 551.016601562 609.047851562 577.62890625 596.931640625 577.62890625 596.931640625 c 1,0,1
52 63 m 1,22,23
 63.8515625 61.5966796875 74.8759765625 60.8740234375 85.05859375 60.8740234375 c 0,24,25
 140.174804688 60.8740234375 170.624023438 82.0439453125 174 131 c 1,26,-1
 288 150 l 1,27,28
 287.791992188 146.228515625 287.69140625 142.60546875 287.69140625 139.124023438 c 0,29,30
 287.69140625 62.9560546875 356.818359375 48.7841796875 404.6640625 48.7841796875 c 0,31,32
 407.716796875 48.7841796875 410.525390625 48.8828125 413 49 c 1,33,-1
 423 1 l 1,34,-1
 60 1 l 1,35,-1
 52 63 l 1,22,23
49 595 m 1,50,51
 64.4892578125 593.95703125 80.77734375 593.513671875 97.2822265625 593.513671875 c 0,52,53
 191.596679688 593.513671875 293 608 293 608 c 1,54,55
 293 608 276 486 270 460 c 1,56,57
 293 468 l 1,60,61
 290.176757812 402.124023438 286.036132812 348.6171875 286.036132812 279 c 0,64,65
 286.036132812 192.529296875 286.936523438 99.921875 300 0 c 1,66,-1
 165 0 l 1,67,68
 175.778320312 143.716796875 181.91015625 285.884765625 181.91015625 377.525390625 c 0,69,70
 181.91015625 413.413085938 180.969726562 441.552734375 179 459 c 0,71,72
 174 504 138 532 56 534 c 1,73,-1
 49 595 l 1,50,51
EndSplineSet
Layer: 2
Layer: 3
SplineSet
478 408 m 1053
577.62890625 596.931640625 m 5,0,1
 584.06640625 550.486328125 572 443 564.676757812 402 c 5,9,10
 478 408 l 5,0,0
 472.810546875 474.30078125 450.081054688 516.78515625 415.336914062 554 c 5,0,0
 512.3359375 487.185546875 l 5,11,12
 382.362304688 532.341796875 234.743164062 428.206054688 246 417 c 5,15,-1
 241 464 l 5,16,17
 302.587890625 535.41015625 417.267578125 606.356445312 502 608.061523438 c 4,0,0
 551.016601562 609.047851562 577.62890625 596.931640625 577.62890625 596.931640625 c 5,0,1
52 63 m 5,22,23
 63.8515625 61.5966796875 74.8759765625 60.8740234375 85.05859375 60.8740234375 c 4,24,25
 140.174804688 60.8740234375 170.624023438 82.0439453125 174 131 c 5,26,-1
 288 150 l 5,27,28
 287.791992188 146.228515625 287.69140625 142.60546875 287.69140625 139.124023438 c 4,29,30
 287.69140625 62.9560546875 356.818359375 48.7841796875 404.6640625 48.7841796875 c 4,31,32
 407.716796875 48.7841796875 410.525390625 48.8828125 413 49 c 5,33,-1
 423 1 l 5,34,-1
 60 1 l 5,35,-1
 52 63 l 5,22,23
49 595 m 5,50,51
 64.4892578125 593.95703125 80.77734375 593.513671875 97.2822265625 593.513671875 c 4,52,53
 191.596679688 593.513671875 293 608 293 608 c 5,54,55
 293 608 276 486 270 460 c 5,56,57
 293 468 l 5,60,61
 290.176757812 402.124023438 286.036132812 348.6171875 286.036132812 279 c 4,64,65
 286.036132812 192.529296875 286.936523438 99.921875 300 0 c 5,66,-1
 165 0 l 5,67,68
 175.778320312 143.716796875 181.91015625 285.884765625 181.91015625 377.525390625 c 4,69,70
 181.91015625 413.413085938 180.969726562 441.552734375 179 459 c 4,71,72
 174 504 138 532 56 534 c 5,73,-1
 49 595 l 5,50,51
EndSplineSet
Layer: 4
EndChar

StartChar: t
Encoding: 116 116 12
GlifName: t
Width: 469
VWidth: 79
Flags: HW
LayerCount: 5
Back
Fore
SplineSet
132 577 m 1
 397 578 l 1
 404 515 l 1
 142 518 l 1
 132 577 l 1
25 578 m 1
 163.997070312 569.036132812 154.541015625 619.109375 178 720 c 1
 256 734 l 1
 247.344726562 594.717773438 228 319 241 142 c 0
 247.630859375 51.72265625 338 35 426 96 c 1
 448 60 l 1
 397.432617188 16.1953125 334.638671875 -12.3291015625 254 -13 c 0
 190.130859375 -13.53125 117.151266658 11.8572997848 121 110 c 0
 129 314 130 456 125 518 c 1
 125 518 103 524 31 524 c 1
 25 578 l 1
EndSplineSet
Layer: 2
Layer: 3
Layer: 4
EndChar

StartChar: p
Encoding: 112 112 13
GlifName: p
Width: 761
VWidth: 79
Flags: HW
LayerCount: 5
Back
Fore
SplineSet
43 -156 m 1
 54.8515625 -157.403320312 65.8759765625 -158.125976562 76.05859375 -158.125976562 c 0
 131.174804688 -158.125976562 159.624023438 -149.956054688 163 -101 c 5
 282 -82 l 5
 281.791992188 -85.771484375 281.69140625 -89.39453125 281.69140625 -92.8759765625 c 4
 281.69140625 -169.043945312 340.818359375 -170.215820312 388.6640625 -170.215820312 c 0
 391.716796875 -170.215820312 394.525390625 -170.1171875 397 -170 c 1
 407 -218 l 1
 51 -218 l 1
 43 -156 l 1
40 595 m 1
 55.4892578125 593.95703125 71.77734375 593.513671875 88.2822265625 593.513671875 c 0
 182.596679688 593.513671875 284 608 284 608 c 1
 284 608 267 506 261 480 c 1
 284 488 l 1
 281.176757812 422.124023438 277.036132812 348.6171875 277.036132812 279 c 0
 277.036132812 192.529296875 277.936523438 -117.078125 291 -217 c 1
 156 -217 l 1
 166.778320312 -73.283203125 172.91015625 285.884765625 172.91015625 377.525390625 c 0
 172.91015625 413.413085938 171.969726562 441.552734375 170 459 c 0
 165 504 130 536 47 534 c 1
 40 595 l 1
577.991210938 331 m 0
 579.057617188 433.94921875 547.630859375 524.045898438 458.991210938 533 c 0
 377.592773438 541.22265625 301.708007812 474.265625 280.991210938 420 c 1
 249.991210938 461 l 1
 281.892578125 535 378.104492188 613.91015625 490.991210938 614 c 0
 635.000976562 614.115234375 710.837890625 531.100585938 711.991210938 370 c 0
 713.008789062 227.802734375 629.883789062 50.240234375 426.991210938 5 c 0
 348.649414062 -12.46875 266.991210938 -3 226.991210938 12 c 1
 266.991210938 100 l 1
 266.991210938 100 338.415039062 43.060546875 428.991210938 62 c 0
 516.788085938 80.3583984375 576.432617188 180.549804688 577.991210938 331 c 0
EndSplineSet
Layer: 2
Layer: 3
Layer: 4
EndChar

StartChar: v
Encoding: 118 118 15
GlifName: v
Width: 681
VWidth: 79
Flags: HW
LayerCount: 5
Back
SplineSet
662 538 m 1
 592.022460938 535.735351562 597.107421875 508.028320312 576.810546875 455.861328125 c 0
 508 279 416.959960938 88.9033203125 379.661132812 8.6162109375 c 9
 255.399414062 -24.650390625 l 1
 216.270507812 86.927734375 183.459960938 225.581054688 103.497070312 462.43359375 c 1
 84.3037109375 526.984375 68.650390625 532.875976562 12 532 c 1
 -2 596 l 1
 112 590.78125 206 592.904296875 320 596 c 1
 334 542 l 1
 258 536 205 525 220 460 c 1
 219.7265625 459.962890625 l 1
 247.463867188 361.939453125 288.78125 252.842773438 313.678710938 158 c 1
 316.244140625 135.912109375 333 45 330.991210938 51 c 5
 360.858398438 122.987304688 438.057617188 302.979492188 501.733398438 468.791992188 c 1
 519.560546875 526.806640625 457.559570312 535.975585938 390 533 c 1
 381 596 l 1
 477.666992188 590.463867188 554.333007812 592.002929688 651 596 c 1
 662 538 l 1
EndSplineSet
Fore
SplineSet
676 538 m 1
 606.022460938 535.735351562 599.863888353 507.310413037 577.810546875 455.861328125 c 0
 502 279 412.959960938 75.9033203125 375.661132812 -4.3837890625 c 1
 346.434717732 -7.65563267774 307.273052657 -15.1803859342 273.399414062 -25.650390625 c 1
 234.270507812 85.927734375 183.459960938 225.581054688 103.497070312 462.43359375 c 1
 84.3037109375 526.984375 52.650390625 538.875976562 6 538 c 1
 -2 596 l 1
 112 590.78125 206 592.904296875 320 596 c 1
 334 542 l 1
 258 536 210 525 225 460 c 1
 224.7265625 459.962890625 l 1
 252.463867188 361.939453125 283.78125 291.842773438 308.678710938 197 c 1
 319.244140625 161.912109375 338 63 335.991210938 69 c 1
 369.858398438 140.987304688 458.057617188 352.979492188 491.733398438 458.791992188 c 1
 509.560546875 517.806640625 471.559570312 535.975585938 404 533 c 1
 395 596 l 1
 491.666992188 590.463867188 568.333007812 592.002929688 665 596 c 1
 676 538 l 1
EndSplineSet
Layer: 2
SplineSet
682 538 m 1
 612.022460938 535.735351562 597.107421875 508.028320312 576.810546875 455.861328125 c 0
 508 279 416.959960938 68.9033203125 379.661132812 -11.3837890625 c 9
 252.399414062 -14.650390625 l 1
 213.270507812 96.927734375 183.459960938 225.581054688 103.497070312 462.43359375 c 1
 84.3037109375 526.984375 48.650390625 532.875976562 -8 532 c 1
 -22 596 l 1
 92 590.78125 206 592.904296875 320 596 c 1
 334 542 l 1
 258 536 222 515 237 450 c 1
 236.7265625 449.962890625 l 1
 264.463867188 351.939453125 295.78125 252.842773438 320.678710938 158 c 1
 323.244140625 135.912109375 333 65 330.991210938 71 c 1
 360.858398438 142.987304688 428.057617188 302.979492188 491.733398438 468.791992188 c 1
 509.560546875 526.806640625 457.559570312 535.975585938 390 533 c 1
 381 596 l 1
 477.666992188 590.463867188 574.333007812 592.002929688 671 596 c 1
 682 538 l 1
EndSplineSet
Layer: 3
Layer: 4
EndChar

StartChar: m
Encoding: 109 109 16
GlifName: m
Width: 1177
VWidth: 79
Flags: HW
LayerCount: 5
Back
SplineSet
1052.62890625 476.931640625 m 0
 1058.77929688 397.897460938 1051.90332031 113 1047 0 c 1
 907 0 l 1
 931.154296875 113.708984375 938.047851562 319.502929688 927.803710938 417.126953125 c 0
 919.877929688 492.657226562 859.4296875 524.543945312 797 513 c 0
 715.698242188 497.966796875 661 437 661 437 c 1
 636 474 l 1
 674.055664062 524.724609375 780.8984375 608.36328125 885 613 c 0
 970.555664062 616.810546875 1043.96484375 588.276367188 1052.62890625 476.931640625 c 0
824 65 m 1
 900 61 922 99 926 147 c 1
 1052 146 l 1
 1049 56 1123 56 1142 57 c 1
 1152 0 l 1
 834 0 l 1
 824 65 l 1
662.62890625 476.931640625 m 0
 668.779296875 397.897460938 661.903320312 113 657 0 c 1
 517 0 l 1
 541.154296875 113.708984375 548.047851562 319.502929688 537.803710938 417.126953125 c 0
 529.877929688 492.657226562 473.4296875 524.543945312 411 513 c 0
 329.698242188 497.966796875 266 412 266 412 c 1
 241 449 l 1
 269.055664062 509.724609375 391.8984375 608.36328125 496 613 c 4
 581.555664062 616.810546875 653.96484375 588.276367188 662.62890625 476.931640625 c 0
41 62 m 1
 117 63 149 79 153 137 c 1
 279 150 l 1
 269.751953125 54.67578125 336.915039062 53.7607421875 363 55 c 1
 373 0 l 1
 49 0 l 1
 41 62 l 1
440 65 m 1
 516 61 532 99 536 147 c 1
 662 146 l 1
 659 56 733 56 752 57 c 1
 762 0 l 1
 450 0 l 1
 440 65 l 1
38 596 m 1
 142 592 283 608 283 608 c 1
 283 608 266 496 260 470 c 1
 260 437 283 478 283 478 c 1
 277 338 288 181 270 0 c 1
 144 0 l 1
 159 200 165 397 158 459 c 0
 153 504 127 526 45 528 c 1
 38 596 l 1
EndSplineSet
Fore
SplineSet
1037.62890625 476.931640625 m 0
 1048.98144531 398.475585938 1036.90332031 113 1032 0 c 1
 905 0 l 1
 929.154296875 113.708984375 936.047851562 319.502929688 925.803710938 417.126953125 c 0
 917.877929688 492.657226562 864.4296875 529.543945312 782 513 c 0
 700.936523438 496.73046875 636 417 636 417 c 1
 611 454 l 1
 649.055664062 514.724609375 770.975585938 604.8671875 875 611 c 0
 973.555664062 616.810546875 1022.96484375 578.276367188 1037.62890625 476.931640625 c 0
819 58 m 1
 895 54 920 92 924 140 c 1
 1037 139 l 1
 1034 49 1108 49 1127 50 c 1
 1137 0 l 1
 829 0 l 1
 819 58 l 1
651.62890625 476.931640625 m 0
 662.981445312 398.475585938 650.903320312 113 646 0 c 1
 519 0 l 1
 543.154296875 113.708984375 550.047851562 319.502929688 539.803710938 417.126953125 c 0
 531.877929688 492.657226562 478.4296875 529.543945312 396 513 c 0
 314.936523438 496.73046875 246 417 246 417 c 1
 221 454 l 1
 259.055664062 514.724609375 384.975585938 604.8671875 489 611 c 0
 587.555664062 616.810546875 636.96484375 578.276367188 651.62890625 476.931640625 c 0
52 62 m 1
 128 63 160 72 164 130 c 1
 279 143 l 1
 273.751953125 47.67578125 336.915039062 46.7607421875 363 48 c 1
 373 0 l 1
 60 0 l 1
 52 62 l 1
443 58 m 1
 519 54 534 92 538 140 c 1
 651 139 l 1
 648 49 712 49 731 50 c 1
 741 0 l 1
 453 0 l 1
 443 58 l 1
49 596 m 1
 153 592 283 608 283 608 c 1
 283 608 266 496 260 470 c 1
 260 437 283 478 283 478 c 1
 277 338 288 181 270 0 c 1
 155 0 l 1
 170 200 176 397 169 459 c 0
 164 504 138 526 56 528 c 1
 49 596 l 1
EndSplineSet
Layer: 2
SplineSet
1052.62890625 476.931640625 m 0
 1058.77929688 397.897460938 1051.90332031 113 1047 0 c 1
 907 0 l 1
 931.154296875 113.708984375 938.047851562 319.502929688 927.803710938 417.126953125 c 0
 919.877929688 492.657226562 859.4296875 524.543945312 797 513 c 0
 715.698242188 497.966796875 661 437 661 437 c 1
 636 474 l 1
 674.055664062 524.724609375 780.8984375 608.36328125 885 613 c 0
 970.555664062 616.810546875 1043.96484375 588.276367188 1052.62890625 476.931640625 c 0
824 65 m 1
 900 61 922 99 926 147 c 1
 1052 146 l 1
 1049 56 1123 56 1142 57 c 1
 1152 0 l 1
 834 0 l 1
 824 65 l 1
662.62890625 476.931640625 m 0
 668.779296875 397.897460938 661.903320312 113 657 0 c 1
 517 0 l 1
 541.154296875 113.708984375 548.047851562 319.502929688 537.803710938 417.126953125 c 0
 529.877929688 492.657226562 473.4296875 524.543945312 411 513 c 0
 329.698242188 497.966796875 266 412 266 412 c 1
 241 449 l 1
 269.055664062 509.724609375 391.8984375 608.36328125 496 613 c 4
 581.555664062 616.810546875 653.96484375 588.276367188 662.62890625 476.931640625 c 0
41 62 m 1
 117 63 149 79 153 137 c 1
 279 150 l 1
 269.751953125 54.67578125 336.915039062 53.7607421875 363 55 c 1
 373 0 l 1
 49 0 l 1
 41 62 l 1
440 65 m 1
 516 61 532 99 536 147 c 1
 662 146 l 1
 659 56 733 56 752 57 c 1
 762 0 l 1
 450 0 l 1
 440 65 l 1
38 596 m 1
 142 592 283 608 283 608 c 1
 283 608 266 496 260 470 c 1
 260 437 283 478 283 478 c 1
 277 338 288 181 270 0 c 1
 144 0 l 1
 159 200 165 397 158 459 c 0
 153 504 127 526 45 528 c 1
 38 596 l 1
EndSplineSet
Layer: 3
Layer: 4
EndChar

StartChar: g
Encoding: 103 103 17
GlifName: g
Width: 727
VWidth: 153
Flags: HW
LayerCount: 5
Back
SplineSet
475 541 m 21
 504.642578125 543.012695312 585.03125 560.997070312 687 611 c 5
 692.575195312 574 694.013671875 516 690 486 c 5
 634.099609375 487.651367188 567.861328125 487.952148438 517 488 c 13
 475 541 l 21
351 45 m 21
 292.846679688 30.921875 172.095703125 -24.0087890625 171.66015625 -106.14453125 c 4
 171.321528492 -170.003196905 243.0234375 -205.37890625 357.799804688 -198.712890625 c 4
 426.669921875 -194.712890625 520.071289062 -145.645507812 520.071289062 -78.5380859375 c 4
 520.071289062 60.2900390625 230.845703125 60.7626953125 67 46.7880859375 c 5
 69 113 l 5
 99 148 155 198 211 240 c 5
 251 216 l 5
 220 193 191.397460938 159.08203125 161 126 c 5
 387.934570312 156.102539062 636.467773438 126.79296875 635.25390625 -35.34375 c 4
 634.18359375 -178.364257812 458.000976562 -264.379882812 305.907226562 -265.24609375 c 4
 156.54296875 -266.096679688 39.1142578125 -223.643554688 38.6875 -132.228515625 c 4
 38.015625 11.6806640625 255.303710938 65.033203125 358.662109375 80.2421875 c 4
 351 45 l 21
440.759765625 411.188476562 m 4
 440.759765625 484.5078125 403.372070312 558.1484375 302.224609375 558.1484375 c 4
 233.801757812 558.1484375 172.729492188 498.283203125 172.729492188 413.743164062 c 4
 172.729492188 321.896484375 231.07421875 271.01953125 315.58984375 271.01953125 c 4
 389.826171875 271.01953125 440.759765625 331.7578125 440.759765625 411.188476562 c 4
559.09375 453.286132812 m 4
 559.09375 301.490234375 431.084960938 213.063476562 295.465820312 213.063476562 c 4
 150.465820312 213.063476562 55.451171875 266.000976562 54.744140625 377.9921875 c 4
 53.853515625 519.149414062 189.806640625 610.5859375 331.556640625 610.5859375 c 4
 446.807617188 610.5859375 559.09375 571.178710938 559.09375 453.286132812 c 4
EndSplineSet
Fore
SplineSet
495 520 m 17
 524.642578125 522.012695312 605.03125 550.997070312 707 611 c 1
 712.575195312 574 714.013671875 516 710 486 c 1
 654.099609375 487.651367188 587.861328125 487.952148438 537 488 c 9
 495 520 l 17
293 48 m 17
 249.892578125 37.564453125 157.108398438 -8.7060546875 157.456054688 -92 c 0
 157.660250663 -140.826080075 225.087267581 -185.066829713 340.999988855 -185.065696987 c 0
 442.099831938 -185.064709016 540.071289062 -140.292142733 540.071289062 -68.5380859375 c 0
 540.071289062 80.2900390625 153.198242188 39.8740234375 77 36.7880859375 c 1
 62.650390625 58.25 62.7264606648 96.0788587636 69 119 c 1
 99 154 154 201 211 240 c 1
 261 226 l 1
 230 203 190.397460938 153.08203125 180 120 c 1
 436.934570312 140.102539062 656.467773438 120.79296875 655.25390625 -41.34375 c 0
 654.18359375 -184.364257812 442.001953125 -253.524414062 289.907226562 -254.24609375 c 0
 110.54296875 -255.096679688 51.3251953125 -203.606445312 48.6875 -132.228515625 c 0
 46.5480966046 -74.3347231149 95.3037109375 31.033203125 288.662109375 76.2421875 c 0
 293 48 l 17
463.759765625 426.188476562 m 0
 463.759765625 499.5078125 425.372070312 558.1484375 337.224609375 558.1484375 c 0
 268.801757812 558.1484375 188.729492188 498.283203125 188.729492188 403.743164062 c 0
 188.729492188 311.896484375 240.912109375 273.158203125 315.58984375 274.01953125 c 0
 399.659179688 274.989257812 463.759765625 346.7578125 463.759765625 426.188476562 c 0
579.09375 453.286132812 m 0
 579.09375 301.490234375 445.084960938 217.063476562 309.465820312 217.063476562 c 0
 164.465820312 217.063476562 75.451171875 266.000976562 74.744140625 377.9921875 c 0
 73.853515625 519.149414062 209.806640625 610.5859375 351.556640625 610.5859375 c 0
 466.807617188 610.5859375 579.09375 571.178710938 579.09375 453.286132812 c 0
EndSplineSet
Layer: 2
SplineSet
473 541 m 17
 502.642578125 543.012695312 575.03125 560.997070312 677 611 c 1
 682.575195312 574 684.013671875 514 680 484 c 1
 624.099609375 485.651367188 565.861328125 485.952148438 515 486 c 9
 473 541 l 17
232 9 m 17
 193.846679688 -5.078125 162.095703125 -40.0087890625 161.66015625 -82.14453125 c 0
 161 -146 213.830078125 -187.712890625 328.799804688 -187.712890625 c 0
 437.669921875 -187.712890625 520.071289062 -145.645507812 520.071289062 -78.5380859375 c 0
 520.071289062 -32.4404296875 494.779296875 6.521484375 419 6.658203125 c 0
 373.678710938 6.740234375 282.13671875 -14.6240234375 233.065429688 -14.6240234375 c 0
 91.703125 -14.6240234375 21.5859375 20.77734375 19 86.7880859375 c 0
 15.234375 182.895507812 112.053010007 236.017670002 209 245 c 1
 284 213 l 1
 233 203 125.311523438 193.75 121 135 c 0
 115.129882812 55.0029296875 359.790039062 113.04296875 442.943359375 113.04296875 c 0
 564.607421875 113.04296875 636.012695312 57.54296875 635.25390625 -36.34375 c 0
 634.098632812 -179.36328125 467.999023438 -251.0625 275.907226562 -252.24609375 c 0
 166.541992188 -252.919921875 41.341796875 -232.642578125 40.6875 -131.228515625 c 0
 40.08203125 -37.3193359375 121.303710938 29.033203125 224.662109375 44.2421875 c 0
 232 9 l 17
438.759765625 411.188476562 m 0
 438.759765625 484.5078125 403.372070312 558.1484375 302.224609375 558.1484375 c 0
 233.801757812 558.1484375 182.729492188 498.283203125 182.729492188 413.743164062 c 0
 182.729492188 321.896484375 231.07421875 271.01953125 315.58984375 271.01953125 c 0
 389.826171875 271.01953125 438.759765625 331.7578125 438.759765625 411.188476562 c 0
557.09375 453.286132812 m 0
 557.09375 301.490234375 431.084960938 213.063476562 295.465820312 213.063476562 c 0
 150.465820312 213.063476562 65.451171875 266.000976562 64.744140625 377.9921875 c 0
 63.853515625 519.149414062 189.806640625 610.5859375 331.556640625 610.5859375 c 0
 446.807617188 610.5859375 557.09375 571.178710938 557.09375 453.286132812 c 0
EndSplineSet
Layer: 3
Layer: 4
EndChar

StartChar: H
Encoding: 72 72 18
GlifName: H_
Width: 863
VWidth: 79
Flags: HW
LayerCount: 5
Back
Fore
SplineSet
521 759 m 1
 513 820 l 1
 629.390625 810.34375 710.663085938 814.086914062 817 820 c 1
 822 769 l 1
 804 770 744 769 740 674 c 1
 616 683 l 1
 609 731 597 763 521 759 c 1
67 759 m 1
 61 820 l 1
 173.858398438 811.616210938 252.920898438 814.82421875 361 820 c 1
 371 769 l 1
 353 770 284 769 286 674 c 1
 160 683 l 1
 153 731 143 763 67 759 c 1
194 463 m 1
 564 463.868164062 l 5
 708 471 l 1
 708 400 l 1
 194 397 l 1
 194 463 l 1
779 1 m 1
 585 0 l 1
 585 0 604 72 612 136 c 1
 624 298 621 603 611 788 c 1
 753 813 l 1
 728 613 728.133557109 208.061743594 731 145 c 0
 733 101 713 49 795 49 c 1
 779 1 l 1
498 58 m 1
 574 54 609 92 613 140 c 1
 731 139 l 1
 728 49 794 49 813 50 c 1
 823 0 l 1
 508 0 l 1
 498 58 l 1
322 1 m 1
 127 0 l 1
 127 0 146 72 154 136 c 1
 166 298 166 603 156 788 c 1
 299 813 l 1
 274 613 270 208 274 145 c 0
 277 101 256 49 338 49 c 1
 322 1 l 1
42 61 m 1
 118 57 148 89 155 137 c 1
 274 146 l 1
 272 51 348 50 366 51 c 1
 376 0 l 1
 52 0 l 1
 42 61 l 1
EndSplineSet
Layer: 2
Layer: 3
Layer: 4
EndChar

StartChar: A
Encoding: 65 65 19
GlifName: A_
Width: 863
VWidth: 79
Flags: HW
LayerCount: 5
Back
Fore
SplineSet
285 366 m 5
 608 374 l 5
 608 311 l 5
 285 308 l 5
 285 366 l 5
42 61 m 5
 123.422792227 52.1356425144 144.604492188 85.75 164 136 c 4
 256.9921875 376.924804688 326 613 381 798 c 5
 420.333007812 804.305664062 467.666992188 816.022460938 507 829 c 5
 567.802734375 618.80859375 637 418 736.958007812 150.053710938 c 4
 754.052325215 104.230879807 775.1484375 42.955078125 843 55 c 5
 853 0 l 5
 585 0 l 5
 517 0 l 5
 507 64 l 5
 578.248046875 53.4609375 629.143990683 65.1256913254 613.369140625 123.864257812 c 4
 579.81640625 248.799804688 504.260742188 425.809570312 461.649414062 571 c 4
 453.66796875 609.5703125 438.82421875 665.341796875 430.8515625 705.974609375 c 5
 371.046875 497.575195312 278.676261856 210.375662454 264 145 c 4
 242.556641865 49.4801900498 318.494557809 50.4719198783 366 51 c 5
 376 0 l 5
 127 0 l 5
 52 0 l 5
 42 61 l 5
EndSplineSet
Layer: 2
Layer: 3
Layer: 4
EndChar

StartChar: B
Encoding: 66 66 20
GlifName: B_
Width: 719
VWidth: 79
Flags: HW
LayerCount: 5
Back
Fore
SplineSet
488 569 m 0
 521.719726562 677.540039062 451.374023438 764.534179688 355 767 c 0
 308.621563665 768.18661456 274.367748145 758.791201339 251.676977612 750.074799016 c 1
 243.436971643 672.628485778 247.263140567 557.741402765 246.301757812 460.076171875 c 1
 347.258789062 459.206054688 455.625976562 464.791015625 488 569 c 0
546 229 m 0
 545.615032425 316.04200502 475.181015952 393.044574722 370.149414062 395.606445312 c 0
 327.513121342 396.64640531 279.23167228 392.048734076 244.326454553 385.276939723 c 1
 243.424748779 285.691300496 242.9609375 196.865234375 253.397460938 122.84765625 c 1
 259.963867188 65.1826171875 305.028320312 60.6728515625 358 61.0263671875 c 0
 471.314453125 61.7822265625 546.44264997 128.915880141 546 229 c 0
23 61 m 1
 101.803710938 51.2734375 132.94921875 77.185546875 135 127.385742188 c 0
 143.765625 342 147 488 139 648 c 0
 136.110351562 705.798828125 119 762 27 755 c 1
 17 818 l 1
 205.36328125 806.268554688 246.477539062 822.853515625 396 823 c 0
 551.009765625 823.15234375 623.615234375 747.517578125 620 628 c 0
 618.0546875 563.680664062 567.813476562 462.61328125 470.62109375 431.576171875 c 1
 472.631835938 447 l 1
 612.763671875 410.9140625 669.66796875 322.6015625 668.4921875 220 c 0
 666.287109375 27.7685546875 521.204101562 -0.1728515625 320 0.029296875 c 1
 252.19921875 -1.056640625 106.894472553 -0.0066045963563 33 0 c 1
 23 61 l 1
EndSplineSet
Layer: 2
SplineSet
488 569 m 4
 521.719726562 677.540039062 451.374023438 764.534179688 355 767 c 4
 308.621563665 768.18661456 274.367748145 758.791201339 251.676977612 750.074799016 c 5
 243.436971643 672.628485778 247.263140567 557.741402765 246.301757812 460.076171875 c 5
 347.258789062 459.206054688 455.625976562 464.791015625 488 569 c 4
546 229 m 4
 542.740919396 314.013535687 484.181015952 387.044574722 370.149414062 395.606445312 c 4
 327.62015114 398.799683322 279.23167228 391.048734076 244.326454553 385.276939723 c 5
 243.424748779 285.691300496 242.9609375 196.865234375 253.397460938 122.84765625 c 5
 259.963867188 65.1826171875 300.112122459 57.0320159845 352.999994717 60.0265624583 c 4
 472.314762808 66.782243918 549.605377724 134.953259493 546 229 c 4
23 61 m 5
 101.803710938 51.2734375 132.94921875 77.185546875 135 127.385742188 c 4
 143.765625 342 147 488 139 648 c 4
 136.110351562 705.798828125 119 762 27 755 c 5
 17 818 l 5
 205.36328125 806.268554688 246.477539062 822.853515625 396 823 c 4
 551.009765625 823.15234375 623.615234375 747.517578125 620 628 c 4
 618.0546875 563.680664062 571.813942618 476.61286309 491.620729196 441.575904484 c 5
 495.350344259 440.418440611 499.020577192 439.226456518 502.631466322 438.000016943 c 5
 614.763881474 399.914208541 669.668185198 328.601305203 668.4921875 226 c 4
 666.287423392 33.7685693105 521.204101562 -0.1728515625 320 0.029296875 c 5
 252.19921875 -1.056640625 106.894472553 -0.0066045963563 33 0 c 5
 23 61 l 5
EndSplineSet
Layer: 3
Layer: 4
EndChar

StartChar: W
Encoding: 87 87 21
GlifName: W_
Width: 1231
VWidth: 79
Flags: HW
LayerCount: 5
Back
Fore
SplineSet
674 684 m 0
 581.0078125 443.075195312 512 193 457 8 c 1
 417.666992188 1.6943359375 370.333007812 -10.0224609375 331 -23 c 1
 270.197265625 187.19140625 201 402 101.041992188 669.946289062 c 0
 83.947265625 715.76953125 62.8515625 768.044921875 -5 756 c 1
 -15 820 l 1
 100.922851562 816.077148438 233.076171875 812.924804688 321 820 c 1
 331 756 l 1
 259.751953125 766.5390625 208.856445312 754.874023438 224.630859375 696.135742188 c 0
 258.18359375 571.200195312 333.739257812 390.190429688 376.350585938 245 c 0
 384.33203125 206.4296875 399.17578125 140.658203125 407.1484375 100.025390625 c 1
 466.953125 308.424804688 559.32421875 609.624023438 574 675 c 0
 674 684 l 0
1261 759 m 1
 1179.57714844 767.864257812 1158.39550781 734.25 1139 684 c 0
 1046.0078125 443.075195312 978 193 923 8 c 1
 883.666992188 1.6943359375 836.333007812 -10.0224609375 797 -23 c 1
 736.197265625 187.19140625 675 402 575.041992188 669.946289062 c 0
 557.947265625 715.76953125 536.8515625 777.044921875 469 765 c 1
 459 820 l 1
 727 820 l 1
 795 820 l 1
 805 756 l 1
 733.751953125 766.5390625 682.856445312 754.874023438 698.630859375 696.135742188 c 0
 732.18359375 571.200195312 799.739257812 390.190429688 842.350585938 245 c 0
 850.33203125 206.4296875 865.17578125 140.658203125 873.1484375 100.025390625 c 1
 932.953125 308.424804688 1024.32421875 609.624023438 1039 675 c 0
 1060.44335938 770.51953125 984.505859375 769.528320312 937 769 c 1
 927 820 l 1
 1176 820 l 1
 1251 820 l 1
 1261 759 l 1
EndSplineSet
Layer: 2
Layer: 3
Layer: 4
EndChar

StartChar: c
Encoding: 99 99 22
GlifName: c
Width: 583
VWidth: 79
Flags: HW
LayerCount: 5
Back
SplineSet
169.010742188 329 m 4
 167.754882812 206.052734375 210.004882812 64.431640625 349.010742188 62 c 4
 414.020507812 60.8623046875 468.001953125 91 505.010742188 126 c 5
 536.010742188 92 l 5
 484.109375 28 410.001953125 -15 306.010742188 -15 c 4
 157.000976562 -15 46.09765625 69.8994140625 45.0107421875 231 c 4
 43.8369140625 404.986328125 136.03515625 598.454101562 382.001953125 598.419921875 c 4
 480.020507812 598.40625 543.001953125 569 543.001953125 569 c 5
 545.325195312 531.447265625 542.186523438 459.194335938 535.001953125 414 c 5
 455.001953125 416 l 5
 451.509765625 448.768554688 441.643554688 503.46484375 419.953125 537.573242188 c 5
 470.001953125 475.360351562 l 5
 470.001953125 475.360351562 412.151367188 533.848632812 323.001953125 532.705078125 c 4
 234.122070312 531.565429688 170.446289062 469.541015625 169.010742188 329 c 4
EndSplineSet
Fore
SplineSet
169.010742188 325 m 0
 167.021484375 202.0625 210.004882812 64.431640625 344.010742188 62 c 0
 409.020507812 60.8203125 468.001953125 86 505.010742188 121 c 1
 536.010742188 87 l 1
 484.109375 23 410.001953125 -15 306.010742188 -15 c 0
 157.000976562 -15 46.09765625 68.8994140625 45.0107421875 230 c 0
 43.8369140625 403.986328125 139.03515625 598.454101562 382.001953125 598.419921875 c 0
 480.020507812 598.40625 543.001953125 569 543.001953125 569 c 1
 545.325195312 531.447265625 542.186523438 461.194335938 535.001953125 416 c 1
 455.001953125 418 l 1
 453.509765625 460.768554688 447.643554688 503.46484375 428.953125 537.573242188 c 1
 480.001953125 435.360351562 l 1
 458.15625 479.959960938 405.958984375 533.854492188 324.001953125 532.705078125 c 0
 245.122070312 531.599609375 171.446289062 475.541015625 169.010742188 325 c 0
EndSplineSet
Layer: 2
Layer: 3
Layer: 4
EndChar

StartChar: w
Encoding: 119 119 23
GlifName: w
Width: 1025
VWidth: 79
Flags: HW
LayerCount: 5
Back
Fore
SplineSet
1032 538 m 1
 972.022460938 535.735351562 964.107421875 508.028320312 943.810546875 455.861328125 c 0
 875 279 793.959960938 70.9033203125 756.661132812 -9.3837890625 c 9
 653.399414062 -25.650390625 l 1
 614.270507812 85.927734375 563.459960938 245.581054688 483.497070312 482.43359375 c 1
 464.303710938 526.984375 449.650390625 537.875976562 403 532 c 1
 385 596 l 5
 496 591.78125 573 593.904296875 667 596 c 1
 677 542 l 5
 616 546 596 525 611 460 c 1
 610.7265625 459.962890625 l 1
 638.463867188 361.939453125 663.78125 291.842773438 688.678710938 197 c 1
 699.244140625 161.912109375 715 71 712.991210938 77 c 1
 744.858398438 148.987304688 795.057617188 292.979492188 858.733398438 458.791992188 c 1
 881.560546875 516.806640625 837.559570312 535.975585938 770 533 c 1
 761 596 l 1
 857.666992188 590.463867188 927.333007812 590.002929688 1021 596 c 1
 1032 538 l 1
579.810546875 455.861328125 m 0
 511 279 409.959960938 70.9033203125 372.661132812 -9.3837890625 c 9
 269.399414062 -25.650390625 l 1
 230.270507812 85.927734375 189.459960938 225.581054688 109.497070312 462.43359375 c 1
 90.3037109375 526.984375 58.650390625 532.875976562 12 532 c 1
 4 596 l 1
 124 586.78125 220 588.904296875 326 596 c 1
 340 542 l 1
 284 546 207 538 231 460 c 1
 230.7265625 459.962890625 l 1
 258.463867188 361.939453125 285.78125 291.842773438 310.678710938 197 c 1
 321.244140625 161.912109375 338 68 335.991210938 74 c 1
 367.858398438 145.987304688 435.057617188 292.979492188 498.733398438 458.791992188 c 0
 579.810546875 455.861328125 l 0
EndSplineSet
Layer: 2
Layer: 3
Layer: 4
EndChar

StartChar: V
Encoding: 86 86 24
GlifName: V_
Width: 779
VWidth: 79
Flags: HW
LayerCount: 5
Back
SplineSet
846.319335938 759.60546875 m 5
 750.118164062 756.4921875 737.75390625 709.79296875 708.333984375 638.686523438 c 4
 607.73828125 395.549804688 492.083007812 92.47265625 440.807617188 -17.900390625 c 13
 305.850585938 -35.2626953125 l 5
 262.05859375 118.126953125 166.208007812 445.11328125 95.28125 640.72265625 c 5
 65.8955078125 722.461914062 19.380859375 750.809570312 -44.751953125 749.60546875 c 5
 -55.7490234375 819.33984375 l 5
 100.969726562 810.166015625 230.194335938 812.083984375 366.913085938 819.33984375 c 5
 380.16015625 755.104492188 l 5
 275.680664062 746.856445312 215.693359375 731.734375 236.314453125 642.375976562 c 5
 235.938476562 642.325195312 l 5
 272.0703125 507.569335938 310.123046875 375.205078125 355.350585938 244.821289062 c 5
 369.875 196.584960938 390.53515625 66.734375 387.7734375 74.982421875 c 5
 430.33203125 173.946289062 539.463867188 422.768554688 613.000976562 650.715820312 c 5
 635.381835938 730.470703125 565.267578125 756.823242188 472.391601562 752.731445312 c 5
 460.018554688 819.33984375 l 5
 592.91015625 811.728515625 698.3046875 813.844726562 831.196289062 819.33984375 c 5
 846.319335938 759.60546875 l 5
EndSplineSet
Fore
SplineSet
789 758 m 1
 707.577148438 766.864257812 686.395507812 733.25 667 683 c 0
 574.0078125 442.075195312 505 193 450 8 c 1
 410.666992188 1.6943359375 363.333007812 -10.0224609375 324 -23 c 1
 263.197265625 187.19140625 194 401 94.0419921875 668.946289062 c 0
 76.947265625 714.76953125 55.8515625 776.044921875 -12 764 c 1
 -22 819 l 1
 89.9999999952 813.681375781 232.000000004 813.302280164 314 819 c 5
 324 755 l 1
 252.751953125 765.5390625 201.856445312 753.874023438 217.630859375 695.135742188 c 0
 251.18359375 570.200195312 326.739257812 390.190429688 369.350585938 245 c 0
 377.33203125 206.4296875 392.17578125 140.658203125 400.1484375 100.025390625 c 1
 459.953125 308.424804688 552.32421875 608.624023438 567 674 c 0
 588.443359375 769.51953125 512.505859375 768.528320312 465 768 c 1
 455 819 l 1
 565.698343336 814.501715792 676.136932038 810.4364566 779 819 c 1
 789 758 l 1
EndSplineSet
Layer: 2
SplineSet
789 755 m 5
 707.577148438 763.864257812 686.395507812 730.25 667 680 c 4
 574.0078125 439.075195312 505 193 450 8 c 5
 410.666992188 1.6943359375 363.333007812 -10.0224609375 324 -23 c 5
 263.197265625 187.19140625 194 398 94.0419921875 665.946289062 c 4
 76.947265625 711.76953125 55.8515625 773.044921875 -12 761 c 5
 -22 816 l 5
 246 816 l 5
 314 816 l 5
 324 752 l 5
 252.751953125 762.5390625 201.856445312 750.874023438 217.630859375 692.135742188 c 4
 251.18359375 567.200195312 326.739257812 390.190429688 369.350585938 245 c 4
 377.33203125 206.4296875 392.17578125 140.658203125 400.1484375 100.025390625 c 5
 459.953125 308.424804688 552.32421875 605.624023438 567 671 c 4
 588.443359375 766.51953125 512.505859375 765.528320312 465 765 c 5
 455 816 l 5
 704 816 l 5
 779 816 l 5
 789 755 l 5
EndSplineSet
Layer: 3
Layer: 4
EndChar

StartChar: C
Encoding: 67 67 25
GlifName: C_
Width: 748
VWidth: 79
Flags: HW
LayerCount: 5
Back
Fore
SplineSet
189.546875 413.4375 m 0
 186.6875 235.322265625 246.606445312 84.1103515625 460.859375 80.78515625 c 0
 549.764648438 79.4052734375 632.41796875 118.60546875 683.02734375 166.467773438 c 1
 723.419921875 122.97265625 l 1
 652.444335938 35.4521484375 551.102539062 -16.5126953125 408.89453125 -16.5126953125 c 0
 205.124023438 -16.5126953125 58.4619140625 98.2197265625 56.9765625 318.525390625 c 0
 55.3720703125 556.451171875 180.555664087 822.38591328 512.8125 822.338867188 c 0
 643.852539062 822.3203125 732.98046875 782.107421875 732.98046875 782.107421875 c 1
 736.157226562 730.75390625 731.865234375 634.68359375 722.040039062 572.879882812 c 1
 612.639648438 575.615234375 l 1
 610.599609375 634.100585938 602.577148438 692.48828125 577.018554688 739.131835938 c 1
 673.229892506 738.399806251 648.723479615 678.319784847 646.827148438 629.35546875 c 1
 616.953125 690.345703125 580.57958981 751.547734492 458.497070312 750.474609375 c 4
 300.627929688 749.086914062 192.69140625 609.305664062 189.546875 413.4375 c 0
EndSplineSet
Layer: 2
Layer: 3
Layer: 4
EndChar

StartChar: q
Encoding: 113 113 26
GlifName: q
Width: 668
VWidth: 79
Flags: HWO
LayerCount: 5
Back
Fore
SplineSet
309 -156 m 1
 320.8515625 -157.403320312 331.875976562 -158.125976562 342.05859375 -158.125976562 c 0
 397.174804688 -158.125976562 425.624023438 -136.956054688 429 -88 c 1
 548 -69 l 1
 547.791992188 -72.771484375 547.69140625 -76.39453125 547.69140625 -79.8759765625 c 0
 547.69140625 -156.043945312 586.818359375 -170.215820312 634.6640625 -170.215820312 c 0
 637.716796875 -170.215820312 640.525390625 -170.1171875 643 -170 c 1
 653 -218 l 1
 317 -218 l 1
 309 -156 l 1
551.25390625 583 m 1
 536.96875 478.624023438 542.67578125 21.58203125 549.142578125 -102.331054688 c 0
 551.596679688 -149.350585938 493.580078125 -162 565.991210938 -161 c 1
 630.991210938 -185 l 1
 547.991210938 -183 414.991210938 -205 414.991210938 -205 c 1
 444.568359375 -36.57421875 439 386.120117188 434.991210938 443 c 0
 429.245117188 524.5390625 441.317382812 570.12890625 362.991210938 558 c 1
 349.991210938 602 l 1
 551.25390625 583 l 1
145 256 m 0
 144.125976562 119.048828125 215.658203125 69.7099609375 278 71 c 0
 335.049804688 72.1806640625 405.283203125 116.734375 441 201 c 1
 475 160 l 1
 427.098632812 47 321.88671875 -7.9111328125 237 -8 c 0
 91.990234375 -8.15234375 15 90 21 261 c 0
 27.0419921875 433.197265625 110.265625 615.203125 340 617 c 0
 438.060546875 617.766601562 508 600 551 583 c 1
 479 453 l 1
 479 453 414.22265625 574.157226562 297 553 c 0
 215.168945312 538.23046875 146.170898438 439.454101562 145 256 c 0
EndSplineSet
Layer: 2
Layer: 3
Layer: 4
EndChar

StartChar: f
Encoding: 102 102 27
GlifName: f
Width: 469
VWidth: 79
Flags: HW
LayerCount: 5
Back
Fore
SplineSet
16 61 m 1
 92 57 128 78 132 136 c 1
 246 152 l 1
 244 57 336 53 364 54 c 1
 374 0 l 1
 23 0 l 1
 16 61 l 1
49 520 m 1
 39 588 l 1
 180.5078125 583.043945312 252.553710938 582.5 384 588 c 5
 397 522 l 5
 205 523.526367188 l 1
 139 439.640625 l 1
 139.884765625 506.45703125 134.655273438 529.84765625 49 520 c 1
179 126 m 1
 131 117 l 1
 138 279 141.012695312 398.844726562 132 603 c 0
 121.497070312 840.9140625 290.131312333 856.606023047 384 856 c 0
 454.639648438 855.543945312 508 829 508 829 c 1
 514.097371914 773.247646186 513.364257812 720.153320312 507 667 c 1
 422 674 l 1
 418.396484375 739.711914062 397.016111001 796.076821267 368.025390625 814 c 1
 417.333946049 853.716431559 461.855471991 786.49783642 416 760.916992188 c 1
 407.370666558 785.848473737 383.248161396 801.176248786 355 800.7265625 c 0
 275.005859375 799.453125 243.676255175 727.977754595 241 601 c 0
 237.260233192 423.562812246 235.344726562 251.282226562 251 112 c 1
 179 126 l 1
EndSplineSet
Layer: 2
Layer: 3
SplineSet
16 61 m 1
 92 57 131 78 135 136 c 1
 246 152 l 1
 244 57 336 53 364 54 c 1
 374 0 l 1
 23 0 l 1
 16 61 l 1
2 527 m 1
 -8 588 l 1
 384 591 l 1
 397 525 l 1
 205 526.526367188 l 1
 129 444.640625 l 1
 129.884765625 511.45703125 107.655273438 536.84765625 2 527 c 1
172 126 m 1
 134 117 l 1
 141 279 124.012695312 398.844726562 125 603 c 0
 126.151367188 841.142578125 260.129882812 856.42578125 354 856 c 0
 454.639909151 855.543511955 538 819 538 819 c 1
 539.501953125 769.6484375 534.340820312 717.354492188 527 673 c 1
 439 679 l 1
 437.137695312 706.5 431.61328125 785.322265625 423.85546875 821 c 1
 421.845703125 825.858398438 452.609375 720.547851562 450.126953125 725 c 1
 436.666015625 749.142578125 422.973632812 801.221679688 352 800.916992188 c 0
 277.938476562 800.598632812 245.172851562 738.985351562 241 601 c 0
 235.635742188 423.604492188 235.344726562 251.282226562 251 112 c 1
 172 126 l 1
EndSplineSet
Layer: 4
EndChar

StartChar: Agrave
Encoding: 192 192 30
GlifName: A_grave
Width: 1000
VWidth: 0
Flags: H
LayerCount: 5
Back
Fore
SplineSet
347 1296 m 29
 341 1086 l 25
 899 1294 l 25
 881 1444 l 25
 347 1296 l 29
EndSplineSet
Layer: 2
Layer: 3
Layer: 4
EndChar

StartChar: y
Encoding: 121 121 31
GlifName: y
Width: 665
VWidth: 79
Flags: HW
LayerCount: 5
Back
Fore
SplineSet
334 52 m 9
 405 50 l 17
 379.393096142 -8.60643819613 343 -106 308.928710938 -158 c 0
 255.471754944 -239.586631682 157.951171875 -266.837890625 73 -263 c 1
 35.4072265625 -230.930664062 41.9677734375 -163.34375 53 -143 c 1
 246.401367188 -167.401367188 289.989257812 -42.9892578125 334 52 c 9
676 538 m 1
 606.022460938 535.735351562 599.863888353 507.310413037 577.810546875 455.861328125 c 0
 502 279 426.959960938 95.9033203125 389.661132812 15.6162109375 c 1
 360.434570312 12.3447265625 297.2734375 -3.1806640625 263.399414062 -7.650390625 c 1
 224.270507812 103.927734375 183.459960938 225.581054688 103.497070312 462.43359375 c 1
 84.3037109375 526.984375 52.650390625 538.875976562 6 538 c 1
 -2 596 l 1
 112 590.78125 206 592.904296875 320 596 c 1
 334 542 l 1
 258 536 210 525 225 460 c 1
 224.7265625 459.962890625 l 1
 252.463867188 361.939453125 277.78125 296.842773438 308.678710938 202 c 1
 319.244140625 166.912109375 340 60 337.991210938 66 c 1
 374.858398438 137.987304688 458.057617188 352.979492188 491.733398438 458.791992188 c 1
 509.560546875 517.806640625 471.559570312 535.975585938 404 533 c 1
 395 596 l 1
 491.666992188 590.463867188 568.333007812 592.002929688 665 596 c 1
 676 538 l 1
EndSplineSet
Layer: 2
Layer: 3
Layer: 4
EndChar

StartChar: l
Encoding: 108 108 32
Width: 418
VWidth: 79
Flags: HW
LayerCount: 5
Back
Fore
SplineSet
42 61 m 1
 118 57 150 89 157 137 c 5
 276 146 l 1
 274 51 350 50 368 51 c 1
 378 0 l 1
 52 0 l 1
 42 61 l 1
324 1 m 1
 129 0 l 5
 129 0 148 72 156 136 c 4
 165.962890625 270.504882812 168.65432478 529.093847489 163.21775642 718.883007723 c 0
 158.115035989 762.853348469 128.050736014 766.000000004 50 766 c 1
 43 829 l 1
 126 827 300 850 300 850 c 1
 275 637 272 208 276 145 c 0
 279 101 258 49 340 49 c 1
 324 1 l 1
EndSplineSet
Layer: 2
Layer: 3
Layer: 4
EndChar
